<svg width="26" height="32" viewBox="0 0 22 27" fill="none" xmlns="http://www.w3.org/2000/svg">
                    <path
                        d="M4 0H18C19.0609 0 20.0783 0.421427 20.8284 1.17157C21.5786 1.92172 22 2.93913 22 4V19.514C22 20.2604 21.7911 20.9919 21.397 21.6258C21.0029 22.2597 20.4394 22.7707 19.77 23.101L12.782 26.551C12.2319 26.8226 11.6267 26.9641 11.0132 26.9644C10.3997 26.9648 9.79439 26.824 9.244 26.553L2.233 23.1C1.56262 22.7699 0.998112 22.2586 0.603444 21.6241C0.208775 20.9896 -0.00027007 20.2572 2.61859e-07 19.51V4C2.61859e-07 2.93913 0.421428 1.92172 1.17157 1.17157C1.92172 0.421427 2.93913 0 4 0V0Z"
                        fill="#0086CD"
                    />
                </svg>